<svg width="73" height="72" viewBox="0 0 73 72" fill="none" xmlns="http://www.w3.org/2000/svg">
<path opacity="0.3" fill-rule="evenodd" clip-rule="evenodd" d="M15.5 7C15.5 6.44771 15.9477 6 16.5 6H56.5C57.0523 6 57.5 6.44772 57.5 7V38C57.5 38.5523 57.0523 39 56.5 39H16.5C15.9477 39 15.5 38.5523 15.5 38V7ZM21.5 16C21.5 15.4477 21.9477 15 22.5 15H41.5C42.0523 15 42.5 15.4477 42.5 16V17C42.5 17.5523 42.0523 18 41.5 18H22.5C21.9477 18 21.5 17.5523 21.5 17V16ZM22.5 21C21.9477 21 21.5 21.4477 21.5 22V23C21.5 23.5523 21.9477 24 22.5 24H32.5C33.0523 24 33.5 23.5523 33.5 23V22C33.5 21.4477 33.0523 21 32.5 21H22.5Z" fill="#00AB09"/>
<path fill-rule="evenodd" clip-rule="evenodd" d="M9.5 18.9782C9.5 18.5703 9.96208 18.334 10.2927 18.5728L36.5 37.5003L62.7073 18.5728C63.0379 18.334 63.5 18.5703 63.5 18.9782V55.0003C63.5 56.1049 62.6046 57.0003 61.5 57.0003H11.5C10.3954 57.0003 9.5 56.1049 9.5 55.0003V18.9782Z" fill="#00AB09"/>
</svg>
