<svg width="73" height="72" viewBox="0 0 73 72" fill="none" xmlns="http://www.w3.org/2000/svg">
<path opacity="0.3" d="M15.125 62.25C14.4062 62.25 13.6875 61.9625 13.1125 61.3875L7.3625 55.6375C6.2125 54.4875 6.2125 52.7625 7.3625 51.6125C8.5125 50.4625 10.3813 50.4625 11.3875 51.6125L15.125 55.35L24.6125 45.8625C25.7625 44.7125 27.4875 44.7125 28.6375 45.8625C29.7875 47.0125 29.7875 48.7375 28.6375 49.8875L17.1375 61.3875C16.5625 61.9625 15.8438 62.25 15.125 62.25Z" fill="#00AB09"/>
<path fill-rule="evenodd" clip-rule="evenodd" d="M12.5 17C12.5 15.8954 13.3954 15 14.5 15H64.5C65.6046 15 66.5 15.8954 66.5 17V52C66.5 53.1046 65.6046 54 64.5 54H39.4508C38.6789 42.273 28.9224 33 17 33C15.4589 33 13.954 33.1549 12.5 33.4501V17ZM57.9333 20.5189C59.0274 19.9298 60.3919 20.3392 60.9811 21.4333C61.5702 22.5274 61.1608 23.8919 60.0667 24.4811L40.5667 34.9811C39.9008 35.3396 39.0992 35.3396 38.4333 34.9811L18.9333 24.4811C17.8392 23.8919 17.4298 22.5274 18.0189 21.4333C18.6081 20.3392 19.9726 19.9298 21.0667 20.5189L39.5 30.4445L57.9333 20.5189Z" fill="#00AB09"/>
</svg>
