<svg width="30" height="30" viewBox="0 0 30 30" fill="none" xmlns="http://www.w3.org/2000/svg">
<path fill-rule="evenodd" clip-rule="evenodd" d="M15 30C23.2843 30 30 23.2843 30 15C30 6.71573 23.2843 0 15 0C6.71573 0 0 6.71573 0 15C0 23.2843 6.71573 30 15 30Z" fill="#0091FF" fill-opacity="0.1"/>
<path d="M9.79487 19.7167H12.634L15 23L17.366 19.7167H20.2051C21.2005 19.7167 22 18.9 22 17.8833V8.83333C22 7.81667 21.2005 7 20.2051 7H9.79487C8.79953 7 8 7.83333 8 8.83333V17.8667C8 18.9 8.79953 19.7167 9.79487 19.7167ZM15 9.33333C16.0117 9.33333 16.8275 10.1667 16.8275 11.2C16.8275 12.2333 16.0117 13.0667 15 13.0667C13.9883 13.0667 13.1725 12.2333 13.1725 11.2C13.1725 10.1667 13.9883 9.33333 15 9.33333ZM15 13.6667C17.007 13.6667 18.6387 15.3333 18.6387 17.3833H11.3613C11.3613 15.3333 12.993 13.6667 15 13.6667Z" fill="#0091FF"/>
</svg>
