<svg width="14" height="16" viewBox="0 0 14 16" fill="none" xmlns="http://www.w3.org/2000/svg">
<path fill-rule="evenodd" clip-rule="evenodd" d="M7.8 0C8.074 0 8.337 0.113 8.526 0.312L11.726 3.74C11.902 3.926 12 4.173 12 4.429V13C12 13.552 11.552 14 11 14H1C0.448 14 0 13.552 0 13V1C0 0.448 0.448 0 1 0H7.8ZM11 5H7.5C7.224 5 7 4.776 7 4.5V1H1V13H11V5ZM3.5 11C3.22386 11 3 10.7761 3 10.5C3 10.2239 3.22386 10 3.5 10H8.5C8.77614 10 9 10.2239 9 10.5C9 10.7761 8.77614 11 8.5 11H3.5ZM3.5 8C3.22386 8 3 7.77614 3 7.5C3 7.22386 3.22386 7 3.5 7H8.5C8.77614 7 9 7.22386 9 7.5C9 7.77614 8.77614 8 8.5 8H3.5ZM4.5 16C4.22386 16 4 15.7761 4 15.5C4 15.2239 4.22386 15 4.5 15H13V6.5C13 6.22386 13.2239 6 13.5 6C13.7761 6 14 6.22386 14 6.5V15C14 15.5523 13.5523 16 13 16H4.5Z" fill="#00AB09"/>
</svg>
