<svg width="30" height="30" viewBox="0 0 30 30" fill="none" xmlns="http://www.w3.org/2000/svg">
<path fill-rule="evenodd" clip-rule="evenodd" d="M15 30C23.2843 30 30 23.2843 30 15C30 6.71573 23.2843 0 15 0C6.71573 0 0 6.71573 0 15C0 23.2843 6.71573 30 15 30Z" fill="#F86D18" fill-opacity="0.1"/>
<path d="M18.5167 19.0833L18.2333 18.8C18.1333 18.7 18.0138 18.65 17.8747 18.65C17.736 18.65 17.6167 18.7 17.5167 18.8C17.4167 18.9 17.3667 19.0167 17.3667 19.15C17.3667 19.2833 17.4167 19.4 17.5167 19.5L18.1667 20.15C18.2667 20.25 18.3833 20.3 18.5167 20.3C18.65 20.3 18.7667 20.25 18.8667 20.15L20.4833 18.5667C20.5833 18.4667 20.6333 18.3471 20.6333 18.208C20.6333 18.0693 20.5833 17.95 20.4833 17.85C20.3833 17.75 20.264 17.7 20.1253 17.7C19.9862 17.7 19.8667 17.75 19.7667 17.85L18.5167 19.0833ZM11.6667 13H18.3333C18.5222 13 18.6804 12.936 18.808 12.808C18.936 12.6804 19 12.5222 19 12.3333C19 12.1444 18.936 11.986 18.808 11.858C18.6804 11.7304 18.5222 11.6667 18.3333 11.6667H11.6667C11.4778 11.6667 11.3193 11.7304 11.1913 11.858C11.0638 11.986 11 12.1444 11 12.3333C11 12.5222 11.0638 12.6804 11.1913 12.808C11.3193 12.936 11.4778 13 11.6667 13ZM19 22.3333C18.0778 22.3333 17.2918 22.0084 16.642 21.3587C15.9918 20.7084 15.6667 19.9222 15.6667 19C15.6667 18.0778 15.9918 17.2916 16.642 16.6413C17.2918 15.9916 18.0778 15.6667 19 15.6667C19.9222 15.6667 20.7084 15.9916 21.3587 16.6413C22.0084 17.2916 22.3333 18.0778 22.3333 19C22.3333 19.9222 22.0084 20.7084 21.3587 21.3587C20.7084 22.0084 19.9222 22.3333 19 22.3333ZM9 21.5833V10.3333C9 9.96667 9.13044 9.65267 9.39133 9.39133C9.65267 9.13044 9.96667 9 10.3333 9H19.6667C20.0333 9 20.3473 9.13044 20.6087 9.39133C20.8696 9.65267 21 9.96667 21 10.3333V14.7833C20.7889 14.6833 20.5722 14.6 20.35 14.5333C20.1278 14.4667 19.9 14.4167 19.6667 14.3833V10.3333H10.3333V19.7H14.3833C14.4389 20.0444 14.5251 20.3722 14.642 20.6833C14.7584 20.9944 14.9111 21.2889 15.1 21.5667C15.0444 21.5778 14.986 21.5693 14.9247 21.5413C14.8638 21.5138 14.8111 21.4778 14.7667 21.4333L14.2333 20.9C14.1667 20.8333 14.0889 20.8 14 20.8C13.9111 20.8 13.8333 20.8333 13.7667 20.9L13.2333 21.4333C13.1667 21.5 13.0889 21.5333 13 21.5333C12.9111 21.5333 12.8333 21.5 12.7667 21.4333L12.2333 20.9C12.1667 20.8333 12.0889 20.8 12 20.8C11.9111 20.8 11.8333 20.8333 11.7667 20.9L11.2333 21.4333C11.1667 21.5 11.0889 21.5333 11 21.5333C10.9111 21.5333 10.8333 21.5 10.7667 21.4333L10.2333 20.9C10.1667 20.8333 10.0889 20.8 10 20.8C9.91111 20.8 9.83333 20.8333 9.76667 20.9L9.23333 21.4333L9 21.5833ZM11.6667 18.3333H14.3833C14.4167 18.1 14.4667 17.8722 14.5333 17.65C14.6 17.4278 14.6833 17.2111 14.7833 17H11.6667C11.4778 17 11.3193 17.0638 11.1913 17.1913C11.0638 17.3193 11 17.4778 11 17.6667C11 17.8556 11.0638 18.0138 11.1913 18.1413C11.3193 18.2693 11.4778 18.3333 11.6667 18.3333ZM11.6667 15.6667H15.7333C16.1556 15.2556 16.6471 14.9304 17.208 14.6913C17.7693 14.4527 18.3667 14.3333 19 14.3333H11.6667C11.4778 14.3333 11.3193 14.3971 11.1913 14.5247C11.0638 14.6527 11 14.8111 11 15C11 15.1889 11.0638 15.3471 11.1913 15.4747C11.3193 15.6027 11.4778 15.6667 11.6667 15.6667ZM10.3333 19.7V10.3333V19.7Z" fill="#FA7921"/>
</svg>
