<svg width="24" height="32" viewBox="0 0 24 32" fill="none" xmlns="http://www.w3.org/2000/svg">
<path d="M16 0V8H24L16 0ZM14 8V0H3C1.34312 0 0 1.34312 0 3V29C0 30.6562 1.34312 32 3 32H21C22.6569 32 24 30.6569 24 29V10H16.0562C14.8937 10 14 9.10625 14 8ZM18.0063 21.5063C17.7688 21.8563 17.3875 22 17 22C16.6125 22 16.2325 21.8535 15.9394 21.5606L13.5 19.1187V25.5C13.5 26.3281 12.8281 27 12 27C11.1719 27 10.5 26.3281 10.5 25.5V19.1187L8.06063 21.5581C7.47469 22.1441 6.52562 22.1441 5.93937 21.5581C5.35313 20.9722 5.35344 20.0231 5.93937 19.4369L10.9394 14.4369C11.5253 13.8509 12.4744 13.8509 13.0606 14.4369L18.0606 19.4369C18.6437 20.025 18.6438 20.975 18.0063 21.5063Z" fill="#6E916E"/>
</svg>
